<svg xmlns="http://www.w3.org/2000/svg" xmlns:xlink="http://www.w3.org/1999/xlink" width="1263pt" height="577pt" viewBox="0.00 0.00 1262.76 576.80">
<g id="graph0" class="graph" transform="scale(1 1) rotate(0) translate(4 572.8)">
<polygon fill="white" stroke="none" points="-4,4 -4,-572.8 1258.76,-572.8 1258.76,4 -4,4"/>
<!-- start -->
<g id="node1" class="node">
<title>start</title>
<ellipse fill="none" stroke="black" cx="775.3" cy="-550.8" rx="27.66" ry="18"/>
<text text-anchor="middle" x="775.3" y="-546.6" font-family="Times,serif" font-size="14.00">start</text>
</g>
<!-- 1 -->
<g id="node2" class="node">
<title>1</title>
<ellipse fill="none" stroke="black" cx="133.3" cy="-462" rx="27" ry="18"/>
<text text-anchor="middle" x="133.3" y="-457.8" font-family="Times,serif" font-size="14.00">1</text>
</g>
<!-- start&#45;&gt;1 -->
<g id="edge1" class="edge">
<title>start-&gt;1</title>
<path fill="none" stroke="black" d="M748.13,-546.13C646.49,-532.38 288.56,-483.99 171.01,-468.1"/>
<polygon fill="black" stroke="black" points="171.65,-464.65 161.27,-466.78 170.71,-471.59 171.65,-464.65"/>
<text text-anchor="middle" x="513.75" y="-502.2" font-family="Times,serif" font-size="14.00">/</text>
</g>
<!-- 3 -->
<g id="node4" class="node">
<title>3</title>
<ellipse fill="none" stroke="black" cx="601.3" cy="-462" rx="27" ry="18"/>
<text text-anchor="middle" x="601.3" y="-457.8" font-family="Times,serif" font-size="14.00">3</text>
</g>
<!-- start&#45;&gt;3 -->
<g id="edge3" class="edge">
<title>start-&gt;3</title>
<path fill="none" stroke="black" d="M753.97,-539.16C723.62,-524.02 667.79,-496.17 632.71,-478.67"/>
<polygon fill="black" stroke="black" points="634.41,-475.6 623.9,-474.27 631.28,-481.87 634.41,-475.6"/>
<text text-anchor="middle" x="706.22" y="-502.2" font-family="Times,serif" font-size="14.00">f</text>
</g>
<!-- 6 -->
<g id="node6" class="node">
<title>6</title>
<ellipse fill="none" stroke="black" cx="710.3" cy="-462" rx="27" ry="18"/>
<text text-anchor="middle" x="710.3" y="-457.8" font-family="Times,serif" font-size="14.00">6</text>
</g>
<!-- start&#45;&gt;6 -->
<g id="edge5" class="edge">
<title>start-&gt;6</title>
<path fill="none" stroke="black" d="M763.68,-534.28C754.04,-521.4 740.14,-502.84 728.94,-487.89"/>
<polygon fill="black" stroke="black" points="731.75,-485.79 722.95,-479.89 726.14,-489.99 731.75,-485.79"/>
<text text-anchor="middle" x="751.48" y="-502.2" font-family="Times,serif" font-size="14.00">"</text>
</g>
<!-- Newline -->
<g id="node7" class="node">
<title>Newline</title>
<ellipse fill="none" stroke="black" cx="869.3" cy="-373.2" rx="43.75" ry="18"/>
<text text-anchor="middle" x="869.3" y="-369" font-family="Times,serif" font-size="14.00">Newline</text>
</g>
<!-- start&#45;&gt;Newline -->
<g id="edge6" class="edge">
<title>start-&gt;Newline</title>
<path fill="none" stroke="blue" d="M777.85,-532.38C781.58,-510.6 789.89,-472.71 805.93,-444 815.56,-426.77 830.18,-410.29 842.95,-397.67"/>
<polygon fill="blue" stroke="blue" points="845.1,-400.45 849.91,-391.01 840.26,-395.39 845.1,-400.45"/>
<text text-anchor="middle" x="823.62" y="-457.8" font-family="Times,serif" font-size="14.00">\n leaf</text>
</g>
<!-- 8 -->
<g id="node8" class="node">
<title>8</title>
<ellipse fill="none" stroke="black" cx="877.3" cy="-462" rx="27" ry="18"/>
<text text-anchor="middle" x="877.3" y="-457.8" font-family="Times,serif" font-size="14.00">8</text>
</g>
<!-- start&#45;&gt;8 -->
<g id="edge7" class="edge">
<title>start-&gt;8</title>
<path fill="none" stroke="black" d="M791.69,-535.85C808.15,-521.85 833.7,-500.1 852.61,-484.01"/>
<polygon fill="black" stroke="black" points="854.79,-486.75 860.14,-477.61 850.26,-481.42 854.79,-486.75"/>
<text text-anchor="middle" x="839.71" y="-502.2" font-family="Times,serif" font-size="14.00">\r</text>
</g>
<!-- 9 -->
<g id="node9" class="node">
<title>9</title>
<ellipse fill="none" stroke="black" cx="1134.3" cy="-106.8" rx="27" ry="18"/>
<text text-anchor="middle" x="1134.3" y="-102.6" font-family="Times,serif" font-size="14.00">9</text>
</g>
<!-- start&#45;&gt;9 -->
<g id="edge8" class="edge">
<title>start-&gt;9</title>
<path fill="none" stroke="orange" d="M802.35,-546.69C869.3,-538.23 1037.3,-512.12 1037.3,-463 1037.3,-463 1037.3,-463 1037.3,-194.6 1037.3,-159.53 1072.94,-135.09 1101.02,-121.27"/>
<polygon fill="orange" stroke="orange" points="1102.34,-124.51 1109.94,-117.13 1099.4,-118.16 1102.34,-124.51"/>
<text text-anchor="middle" x="1044.3" y="-324.6" font-family="Times,serif" font-size="14.00">\w</text>
</g>
<!-- Division -->
<g id="node3" class="node">
<title>Division</title>
<ellipse fill="none" stroke="black" cx="44.3" cy="-373.2" rx="44.3" ry="18"/>
<text text-anchor="middle" x="44.3" y="-369" font-family="Times,serif" font-size="14.00">Division</text>
</g>
<!-- 1&#45;&gt;Division -->
<g id="edge2" class="edge">
<title>1-&gt;Division</title>
<path fill="none" stroke="blue" d="M109.67,-453.03C95.77,-447.34 78.71,-438.47 67.11,-426 60.78,-419.2 56.01,-410.35 52.52,-401.9"/>
<polygon fill="blue" stroke="blue" points="55.86,-400.85 49.15,-392.65 49.28,-403.24 55.86,-400.85"/>
<text text-anchor="middle" x="98.21" y="-413.4" font-family="Times,serif" font-size="14.00">super / leaf</text>
</g>
<!-- 2 -->
<g id="node10" class="node">
<title>2</title>
<ellipse fill="none" stroke="black" cx="133.3" cy="-373.2" rx="27" ry="18"/>
<text text-anchor="middle" x="133.3" y="-369" font-family="Times,serif" font-size="14.00">2</text>
</g>
<!-- 1&#45;&gt;2 -->
<g id="edge10" class="edge">
<title>1-&gt;2</title>
<path fill="none" stroke="black" d="M133.3,-443.85C133.3,-432.16 133.3,-416.39 133.3,-402.82"/>
<polygon fill="black" stroke="black" points="136.8,-403.12 133.3,-393.12 129.8,-403.12 136.8,-403.12"/>
<text text-anchor="middle" x="135.25" y="-413.4" font-family="Times,serif" font-size="14.00">/</text>
</g>
<!-- Ident -->
<g id="node5" class="node">
<title>Ident</title>
<ellipse fill="none" stroke="black" cx="644.3" cy="-18" rx="30.88" ry="18"/>
<text text-anchor="middle" x="644.3" y="-13.8" font-family="Times,serif" font-size="14.00">Ident</text>
</g>
<!-- 3&#45;&gt;Ident -->
<g id="edge4" class="edge">
<title>3-&gt;Ident</title>
<path fill="none" stroke="blue" d="M573.99,-460.67C486.27,-458.88 217.3,-447.42 217.3,-374.2 217.3,-374.2 217.3,-374.2 217.3,-105.8 217.3,-27.87 493.87,-19.16 601.84,-18.72"/>
<polygon fill="blue" stroke="blue" points="601.74,-22.22 611.74,-18.71 601.73,-15.22 601.74,-22.22"/>
<text text-anchor="middle" x="248.79" y="-235.8" font-family="Times,serif" font-size="14.00">super f leaf</text>
</g>
<!-- 4 -->
<g id="node12" class="node">
<title>4</title>
<ellipse fill="none" stroke="black" cx="546.3" cy="-373.2" rx="27" ry="18"/>
<text text-anchor="middle" x="546.3" y="-369" font-family="Times,serif" font-size="14.00">4</text>
</g>
<!-- 3&#45;&gt;4 -->
<g id="edge14" class="edge">
<title>3-&gt;4</title>
<path fill="none" stroke="black" d="M591.22,-445.08C583.2,-432.43 571.84,-414.5 562.55,-399.84"/>
<polygon fill="black" stroke="black" points="565.63,-398.17 557.32,-391.59 559.72,-401.91 565.63,-398.17"/>
<text text-anchor="middle" x="582.23" y="-413.4" font-family="Times,serif" font-size="14.00">u</text>
</g>
<!-- 10 -->
<g id="node13" class="node">
<title>10</title>
<ellipse fill="none" stroke="black" cx="938.3" cy="-106.8" rx="27" ry="18"/>
<text text-anchor="middle" x="938.3" y="-102.6" font-family="Times,serif" font-size="14.00">10</text>
</g>
<!-- 3&#45;&gt;10 -->
<g id="edge16" class="edge">
<title>3-&gt;10</title>
<path fill="none" stroke="orange" d="M610.63,-444.62C619.44,-427.58 631.3,-399.87 631.3,-374.2 631.3,-374.2 631.3,-374.2 631.3,-194.6 631.3,-166.88 818.97,-129.45 900.85,-114.43"/>
<polygon fill="orange" stroke="orange" points="901.43,-117.89 910.64,-112.65 900.17,-111 901.43,-117.89"/>
<text text-anchor="middle" x="639.85" y="-280.2" font-family="Times,serif" font-size="14.00">\W</text>
</g>
<!-- 6&#45;&gt;6 -->
<g id="edge28" class="edge">
<title>6-&gt;6</title>
<path fill="none" stroke="red" d="M734.84,-470.19C745.81,-470.98 755.3,-468.24 755.3,-462 755.3,-458.1 751.6,-455.57 746.13,-454.41"/>
<polygon fill="red" stroke="red" points="746.52,-450.92 736.35,-453.89 746.15,-457.91 746.52,-450.92"/>
<text text-anchor="middle" x="758.16" y="-457.8" font-family="Times,serif" font-size="14.00">"</text>
</g>
<!-- 7 -->
<g id="node19" class="node">
<title>7</title>
<ellipse fill="none" stroke="black" cx="686.3" cy="-373.2" rx="27" ry="18"/>
<text text-anchor="middle" x="686.3" y="-369" font-family="Times,serif" font-size="14.00">7</text>
</g>
<!-- 6&#45;&gt;7 -->
<g id="edge26" class="edge">
<title>6-&gt;7</title>
<path fill="none" stroke="black" d="M691.64,-448.96C684.19,-443.04 676.43,-435.19 672.41,-426 668.92,-418.02 669.84,-408.97 672.4,-400.68"/>
<polygon fill="black" stroke="black" points="675.63,-402.02 676.1,-391.43 669.13,-399.42 675.63,-402.02"/>
<text text-anchor="middle" x="674.36" y="-413.4" font-family="Times,serif" font-size="14.00">\</text>
</g>
<!-- String -->
<g id="node20" class="node">
<title>String</title>
<ellipse fill="none" stroke="black" cx="766.3" cy="-373.2" rx="34.65" ry="18"/>
<text text-anchor="middle" x="766.3" y="-369" font-family="Times,serif" font-size="14.00">String</text>
</g>
<!-- 6&#45;&gt;String -->
<g id="edge27" class="edge">
<title>6-&gt;String</title>
<path fill="none" stroke="blue" d="M720.57,-445.08C728.68,-432.51 740.16,-414.73 749.58,-400.11"/>
<polygon fill="blue" stroke="blue" points="752.42,-402.18 754.9,-391.88 746.53,-398.39 752.42,-402.18"/>
<text text-anchor="middle" x="758.42" y="-413.4" font-family="Times,serif" font-size="14.00">" leaf</text>
</g>
<!-- 8&#45;&gt;Newline -->
<g id="edge31" class="edge">
<title>8-&gt;Newline</title>
<path fill="none" stroke="blue" d="M875.72,-443.85C874.64,-432.16 873.19,-416.39 871.94,-402.82"/>
<polygon fill="blue" stroke="blue" points="875.45,-402.75 871.05,-393.12 868.48,-403.4 875.45,-402.75"/>
<text text-anchor="middle" x="891.7" y="-413.4" font-family="Times,serif" font-size="14.00">\n leaf</text>
</g>
<!-- 9&#45;&gt;Ident -->
<g id="edge9" class="edge">
<title>9-&gt;Ident</title>
<path fill="none" stroke="green" d="M1121.23,-90.61C1109.71,-78.39 1091.77,-61.98 1072.3,-54 1003.33,-25.75 781,-20.28 686.95,-19.24"/>
<polygon fill="green" stroke="green" points="687.16,-15.74 677.13,-19.14 687.09,-22.74 687.16,-15.74"/>
<text text-anchor="middle" x="1134.78" y="-58.2" font-family="Times,serif" font-size="14.00">super \w leaf</text>
</g>
<!-- 9&#45;&gt;Ident -->
<g id="edge33" class="edge">
<title>9-&gt;Ident</title>
<path fill="none" stroke="green" d="M1154.09,-94.03C1169.86,-83.23 1187.45,-66.98 1175.3,-54 1142.19,-18.63 806.83,-17.73 686.77,-18.55"/>
<polygon fill="green" stroke="green" points="687,-15.05 677.02,-18.63 687.05,-22.05 687,-15.05"/>
<text text-anchor="middle" x="1217.05" y="-58.2" font-family="Times,serif" font-size="14.00">super \W leaf</text>
</g>
<!-- 9&#45;&gt;9 -->
<g id="edge32" class="edge">
<title>9-&gt;9</title>
<path fill="none" stroke="orange" d="M1158.84,-114.99C1169.81,-115.78 1179.3,-113.04 1179.3,-106.8 1179.3,-102.9 1175.6,-100.37 1170.13,-99.21"/>
<polygon fill="orange" stroke="orange" points="1170.52,-95.72 1160.35,-98.69 1170.15,-102.71 1170.52,-95.72"/>
<text text-anchor="middle" x="1187.85" y="-102.6" font-family="Times,serif" font-size="14.00">\W</text>
</g>
<!-- 2&#45;&gt;2 -->
<g id="edge12" class="edge">
<title>2-&gt;2</title>
<path fill="none" stroke="red" d="M157.84,-381.39C168.81,-382.18 178.3,-379.44 178.3,-373.2 178.3,-369.3 174.6,-366.77 169.13,-365.61"/>
<polygon fill="red" stroke="red" points="169.52,-362.12 159.35,-365.09 169.15,-369.11 169.52,-362.12"/>
<text text-anchor="middle" x="183.75" y="-369" font-family="Times,serif" font-size="14.00">\n</text>
</g>
<!-- Comment -->
<g id="node11" class="node">
<title>Comment</title>
<ellipse fill="none" stroke="black" cx="91.3" cy="-284.4" rx="49.13" ry="18"/>
<text text-anchor="middle" x="91.3" y="-280.2" font-family="Times,serif" font-size="14.00">Comment</text>
</g>
<!-- 2&#45;&gt;Comment -->
<g id="edge11" class="edge">
<title>2-&gt;Comment</title>
<path fill="none" stroke="blue" d="M112.12,-361.83C107.28,-359.57 102.14,-357.24 97.3,-355.2 76.24,-346.31 62.15,-355.98 49.11,-337.2 42.08,-327.08 48.16,-316.43 57.67,-307.44"/>
<polygon fill="blue" stroke="blue" points="59.62,-310.37 65.09,-301.3 55.15,-304.98 59.62,-310.37"/>
<text text-anchor="middle" x="80.21" y="-324.6" font-family="Times,serif" font-size="14.00">super / leaf</text>
</g>
<!-- 2&#45;&gt;Comment -->
<g id="edge13" class="edge">
<title>2-&gt;Comment</title>
<path fill="none" stroke="purple" d="M126.85,-355.65C122.7,-345.37 117.03,-331.95 111.3,-320.4 109.95,-317.67 108.48,-314.86 106.97,-312.07"/>
<polygon fill="purple" stroke="purple" points="110.16,-310.6 102.22,-303.59 104.05,-314.03 110.16,-310.6"/>
<text text-anchor="middle" x="153.09" y="-324.6" font-family="Times,serif" font-size="14.00">super \n leaf</text>
</g>
<!-- 4&#45;&gt;Ident -->
<g id="edge15" class="edge">
<title>4-&gt;Ident</title>
<path fill="none" stroke="blue" d="M521.14,-365.98C466.02,-350.83 335.37,-306.29 283,-213.6 268.83,-188.53 290.84,-113.37 300.3,-88.8 306.8,-71.94 306.07,-63.72 321.3,-54 366.87,-24.93 525.25,-19.77 601.99,-19.01"/>
<polygon fill="blue" stroke="blue" points="601.65,-22.51 611.62,-18.94 601.59,-15.51 601.65,-22.51"/>
<text text-anchor="middle" x="315.65" y="-191.4" font-family="Times,serif" font-size="14.00">super u leaf</text>
</g>
<!-- 5 -->
<g id="node14" class="node">
<title>5</title>
<ellipse fill="none" stroke="black" cx="514.3" cy="-284.4" rx="27" ry="18"/>
<text text-anchor="middle" x="514.3" y="-280.2" font-family="Times,serif" font-size="14.00">5</text>
</g>
<!-- 4&#45;&gt;5 -->
<g id="edge18" class="edge">
<title>4-&gt;5</title>
<path fill="none" stroke="black" d="M540.13,-355.46C535.69,-343.41 529.6,-326.89 524.44,-312.91"/>
<polygon fill="black" stroke="black" points="527.83,-311.97 521.09,-303.8 521.26,-314.39 527.83,-311.97"/>
<text text-anchor="middle" x="536.67" y="-324.6" font-family="Times,serif" font-size="14.00">n</text>
</g>
<!-- 11 -->
<g id="node15" class="node">
<title>11</title>
<ellipse fill="none" stroke="black" cx="742.3" cy="-106.8" rx="27" ry="18"/>
<text text-anchor="middle" x="742.3" y="-102.6" font-family="Times,serif" font-size="14.00">11</text>
</g>
<!-- 4&#45;&gt;11 -->
<g id="edge20" class="edge">
<title>4-&gt;11</title>
<path fill="none" stroke="orange" d="M546.36,-354.99C547.46,-312.57 556.35,-202.12 617.3,-142.8 640.27,-120.45 676.28,-112.13 703.77,-109.15"/>
<polygon fill="orange" stroke="orange" points="703.8,-112.66 713.45,-108.31 703.19,-105.69 703.8,-112.66"/>
<text text-anchor="middle" x="574.44" y="-235.8" font-family="Times,serif" font-size="14.00">\W</text>
</g>
<!-- 10&#45;&gt;Ident -->
<g id="edge17" class="edge">
<title>10-&gt;Ident</title>
<path fill="none" stroke="green" d="M927.25,-89.93C918.02,-77.99 903.75,-62.31 887.3,-54 852.98,-36.65 746.29,-26.37 686.32,-21.81"/>
<polygon fill="green" stroke="green" points="686.72,-18.33 676.49,-21.09 686.21,-25.31 686.72,-18.33"/>
<text text-anchor="middle" x="947.32" y="-58.2" font-family="Times,serif" font-size="14.00">super \W leaf</text>
</g>
<!-- 10&#45;&gt;Ident -->
<g id="edge35" class="edge">
<title>10-&gt;Ident</title>
<path fill="none" stroke="green" d="M960.15,-95.73C979.53,-85.47 1002.84,-68.98 989.3,-54 969.36,-31.93 774.53,-23.07 686.78,-20.19"/>
<polygon fill="green" stroke="green" points="687,-16.69 676.89,-19.87 686.78,-23.69 687,-16.69"/>
<text text-anchor="middle" x="1031.02" y="-58.2" font-family="Times,serif" font-size="14.00">super \W leaf</text>
</g>
<!-- 10&#45;&gt;10 -->
<g id="edge34" class="edge">
<title>10-&gt;10</title>
<path fill="none" stroke="orange" d="M962.84,-114.99C973.81,-115.78 983.3,-113.04 983.3,-106.8 983.3,-102.9 979.6,-100.37 974.13,-99.21"/>
<polygon fill="orange" stroke="orange" points="974.52,-95.72 964.35,-98.69 974.15,-102.71 974.52,-95.72"/>
<text text-anchor="middle" x="991.85" y="-102.6" font-family="Times,serif" font-size="14.00">\W</text>
</g>
<!-- 5&#45;&gt;Ident -->
<g id="edge19" class="edge">
<title>5-&gt;Ident</title>
<path fill="none" stroke="blue" d="M495.39,-271.37C447.93,-241.12 327.4,-164.04 325,-159.6 309.5,-130.95 281.11,-110.31 341.3,-54 359.97,-36.54 522.85,-25.51 601.78,-21.14"/>
<polygon fill="blue" stroke="blue" points="601.93,-24.64 611.73,-20.6 601.56,-17.65 601.93,-24.64"/>
<text text-anchor="middle" x="357.65" y="-147" font-family="Times,serif" font-size="14.00">super n leaf</text>
</g>
<!-- 13 -->
<g id="node16" class="node">
<title>13</title>
<ellipse fill="none" stroke="black" cx="477.3" cy="-195.6" rx="27" ry="18"/>
<text text-anchor="middle" x="477.3" y="-191.4" font-family="Times,serif" font-size="14.00">13</text>
</g>
<!-- 5&#45;&gt;13 -->
<g id="edge22" class="edge">
<title>5-&gt;13</title>
<path fill="none" stroke="black" d="M507.17,-266.66C502,-254.54 494.9,-237.87 488.91,-223.84"/>
<polygon fill="black" stroke="black" points="492.15,-222.5 485.01,-214.68 485.71,-225.25 492.15,-222.5"/>
<text text-anchor="middle" x="502.22" y="-235.8" font-family="Times,serif" font-size="14.00">c</text>
</g>
<!-- 12 -->
<g id="node18" class="node">
<title>12</title>
<ellipse fill="none" stroke="black" cx="572.3" cy="-106.8" rx="27" ry="18"/>
<text text-anchor="middle" x="572.3" y="-102.6" font-family="Times,serif" font-size="14.00">12</text>
</g>
<!-- 5&#45;&gt;12 -->
<g id="edge24" class="edge">
<title>5-&gt;12</title>
<path fill="none" stroke="orange" d="M519.86,-266.56C529.89,-236.22 551.06,-172.12 563.21,-135.32"/>
<polygon fill="orange" stroke="orange" points="566.39,-136.87 566.2,-126.28 559.74,-134.68 566.39,-136.87"/>
<text text-anchor="middle" x="557.62" y="-191.4" font-family="Times,serif" font-size="14.00">\W</text>
</g>
<!-- 11&#45;&gt;Ident -->
<g id="edge21" class="edge">
<title>11-&gt;Ident</title>
<path fill="none" stroke="green" d="M735.32,-89.26C730.01,-78.2 721.82,-63.93 711.3,-54 702.33,-45.54 690.92,-38.57 680.07,-33.14"/>
<polygon fill="green" stroke="green" points="681.85,-30.11 671.3,-29.05 678.89,-36.45 681.85,-30.11"/>
<text text-anchor="middle" x="762.54" y="-58.2" font-family="Times,serif" font-size="14.00">super \W leaf</text>
</g>
<!-- 11&#45;&gt;Ident -->
<g id="edge37" class="edge">
<title>11-&gt;Ident</title>
<path fill="none" stroke="green" d="M765.74,-97.65C788.86,-88.34 818.81,-72.03 804.3,-54 789.76,-35.93 728.76,-26.68 686.43,-22.34"/>
<polygon fill="green" stroke="green" points="686.84,-18.86 676.55,-21.39 686.17,-25.83 686.84,-18.86"/>
<text text-anchor="middle" x="845.82" y="-58.2" font-family="Times,serif" font-size="14.00">super \W leaf</text>
</g>
<!-- 11&#45;&gt;11 -->
<g id="edge36" class="edge">
<title>11-&gt;11</title>
<path fill="none" stroke="orange" d="M766.84,-114.99C777.81,-115.78 787.3,-113.04 787.3,-106.8 787.3,-102.9 783.6,-100.37 778.13,-99.21"/>
<polygon fill="orange" stroke="orange" points="778.52,-95.72 768.35,-98.69 778.15,-102.71 778.52,-95.72"/>
<text text-anchor="middle" x="795.85" y="-102.6" font-family="Times,serif" font-size="14.00">\W</text>
</g>
<!-- Func -->
<g id="node17" class="node">
<title>Func</title>
<ellipse fill="none" stroke="black" cx="390.3" cy="-106.8" rx="30.35" ry="18"/>
<text text-anchor="middle" x="390.3" y="-102.6" font-family="Times,serif" font-size="14.00">Func</text>
</g>
<!-- 13&#45;&gt;Func -->
<g id="edge23" class="edge">
<title>13-&gt;Func</title>
<path fill="none" stroke="blue" d="M451.99,-188.78C435.63,-183.73 415.16,-174.78 402.79,-159.6 397.38,-152.97 394.25,-144.38 392.46,-136.1"/>
<polygon fill="blue" stroke="blue" points="395.94,-135.69 390.95,-126.34 389.02,-136.76 395.94,-135.69"/>
<text text-anchor="middle" x="435.04" y="-147" font-family="Times,serif" font-size="14.00">super c leaf</text>
</g>
<!-- 14 -->
<g id="node21" class="node">
<title>14</title>
<ellipse fill="none" stroke="black" cx="465.3" cy="-106.8" rx="27" ry="18"/>
<text text-anchor="middle" x="465.3" y="-102.6" font-family="Times,serif" font-size="14.00">14</text>
</g>
<!-- 13&#45;&gt;14 -->
<g id="edge40" class="edge">
<title>13-&gt;14</title>
<path fill="none" stroke="orange" d="M475.54,-177.3C474.45,-167.22 472.95,-154.27 471.3,-142.8 470.99,-140.6 470.64,-138.33 470.28,-136.05"/>
<polygon fill="orange" stroke="orange" points="473.76,-135.64 468.67,-126.35 466.86,-136.79 473.76,-135.64"/>
<text text-anchor="middle" x="481.92" y="-147" font-family="Times,serif" font-size="14.00">\W</text>
</g>
<!-- 12&#45;&gt;Ident -->
<g id="edge25" class="edge">
<title>12-&gt;Ident</title>
<path fill="none" stroke="green" d="M557.2,-91.51C547.67,-80.71 538.6,-65.8 546.9,-54 559.48,-36.1 582.14,-27.31 602.43,-23.01"/>
<polygon fill="green" stroke="green" points="602.97,-26.47 612.21,-21.28 601.75,-19.58 602.97,-26.47"/>
<text text-anchor="middle" x="584.6" y="-58.2" font-family="Times,serif" font-size="14.00">super \W leaf</text>
</g>
<!-- 12&#45;&gt;Ident -->
<g id="edge39" class="edge">
<title>12-&gt;Ident</title>
<path fill="none" stroke="green" d="M593.12,-94.88C603,-88.85 614.37,-80.6 622.3,-70.8 627.97,-63.81 632.41,-55.14 635.76,-46.91"/>
<polygon fill="green" stroke="green" points="639.03,-48.16 639.17,-37.57 632.46,-45.76 639.03,-48.16"/>
<text text-anchor="middle" x="669.75" y="-58.2" font-family="Times,serif" font-size="14.00">super \W leaf</text>
</g>
<!-- 12&#45;&gt;12 -->
<g id="edge38" class="edge">
<title>12-&gt;12</title>
<path fill="none" stroke="orange" d="M596.84,-114.99C607.81,-115.78 617.3,-113.04 617.3,-106.8 617.3,-102.9 613.6,-100.37 608.13,-99.21"/>
<polygon fill="orange" stroke="orange" points="608.52,-95.72 598.35,-98.69 608.15,-102.71 608.52,-95.72"/>
<text text-anchor="middle" x="625.85" y="-102.6" font-family="Times,serif" font-size="14.00">\W</text>
</g>
<!-- 7&#45;&gt;6 -->
<g id="edge29" class="edge">
<title>7-&gt;6</title>
<path fill="none" stroke="black" d="M689.4,-391.14C691.41,-401.33 694.26,-414.51 697.59,-426 698.29,-428.42 699.07,-430.92 699.89,-433.41"/>
<polygon fill="black" stroke="black" points="696.52,-434.36 703.13,-442.63 703.12,-432.04 696.52,-434.36"/>
<text text-anchor="middle" x="700.45" y="-413.4" font-family="Times,serif" font-size="14.00">"</text>
</g>
<!-- 7&#45;&gt;6 -->
<g id="edge30" class="edge">
<title>7-&gt;6</title>
<path fill="none" stroke="red" d="M693.65,-390.71C696.02,-396.47 698.5,-403.05 700.3,-409.2 702.53,-416.79 704.39,-425.15 705.88,-432.9"/>
<polygon fill="red" stroke="red" points="702.4,-433.29 707.59,-442.52 709.29,-432.06 702.4,-433.29"/>
<text text-anchor="middle" x="707.05" y="-413.4" font-family="Times,serif" font-size="14.00">"</text>
</g>
<!-- 14&#45;&gt;Ident -->
<g id="edge41" class="edge">
<title>14-&gt;Ident</title>
<path fill="none" stroke="green" d="M444.3,-94.96C439.46,-92.72 434.27,-90.52 429.3,-88.8 393.28,-76.32 325.58,-82.51 350.9,-54 367.28,-35.55 524.72,-25.06 601.98,-20.99"/>
<polygon fill="green" stroke="green" points="601.89,-24.5 611.7,-20.49 601.53,-17.51 601.89,-24.5"/>
<text text-anchor="middle" x="388.6" y="-58.2" font-family="Times,serif" font-size="14.00">super \W leaf</text>
</g>
<!-- 14&#45;&gt;Ident -->
<g id="edge43" class="edge">
<title>14-&gt;Ident</title>
<path fill="none" stroke="green" d="M459.65,-89.03C457.02,-77.88 456,-63.58 463.9,-54 481.1,-33.14 554.63,-24.56 602.34,-21.14"/>
<polygon fill="green" stroke="green" points="602.31,-24.65 612.06,-20.5 601.85,-17.67 602.31,-24.65"/>
<text text-anchor="middle" x="501.6" y="-58.2" font-family="Times,serif" font-size="14.00">super \W leaf</text>
</g>
<!-- 14&#45;&gt;14 -->
<g id="edge42" class="edge">
<title>14-&gt;14</title>
<path fill="none" stroke="orange" d="M489.84,-114.99C500.81,-115.78 510.3,-113.04 510.3,-106.8 510.3,-102.9 506.6,-100.37 501.13,-99.21"/>
<polygon fill="orange" stroke="orange" points="501.52,-95.72 491.35,-98.69 501.15,-102.71 501.52,-95.72"/>
<text text-anchor="middle" x="518.85" y="-102.6" font-family="Times,serif" font-size="14.00">\W</text>
</g>
</g>
</svg>